{"title":"Last.Days.in.Vietnam.2014.LIMITED.BRRip.XviD.MP3-RARBG","uid":11870040,"size":1284338477,"categoryP":"video","categoryS":"movies","magnet":"?xt=urn:btih:27713468f402d1b592b5f2e36f01a6d1e9f77ff0&amp;dn=Last.Days.in.Vietnam.2014.LIMITED.BRRip.XviD.MP3-RARBG&amp;tr=udp%3A%2F%2Ftracker.openbittorrent.com%3A80&amp;tr=udp%3A%2F%2Fopen.demonii.com%3A1337&amp;tr=udp%3A%2F%2Ftracker.coppersurfer.tk%3A6969&amp;tr=udp%3A%2F%2Fexodus.desync.com%3A6969","seeders":6,"leechers":1,"uploader":"vickey1992","files":4,"time":1430403959,"description":"Video\nID                                       : 0\nFormat                                   : MPEG-4 Visual\nFormat profile                           : Simple@L5\nFormat settings, BVOP                    : No\nFormat settings, QPel                    : No\nFormat settings, GMC                     : No warppoints\nFormat settings, Matrix                  : Default (H.263)\nCodec ID                                 : XVID\nCodec ID/Hint                            : XviD\nDuration                                 : 1h 34mn\nBit rate                                 : 1 597 Kbps\nWidth                                    : 720 pixels\nHeight                                   : 400 pixels\nDisplay aspect ratio                     : 16:9\nFrame rate                               : 23.976 fps\nColor space                              : YUV\nChroma subsampling                       : 4:2:0\nBit depth                                : 8 bits\nScan type                                : Progressive\nCompression mode                         : Lossy\nBits/(Pixel*Frame)                       : 0.231\nStream size                              : 1.06 GiB (88%)\nTitle                                    : RARBG.COM - Last.Days.in.Vietnam.2014.LIMITED.BRRip.XviD.MP3-RARBG\nWriting library                          : Lavc56.19.100\n\nAudio\nID                                       : 1\nFormat                                   : MPEG Audio\nFormat version                           : Version 1\nFormat profile                           : Layer 3\nMode                                     : Joint stereo\nMode extension                           : MS Stereo\nCodec ID                                 : 55\nCodec ID/Hint                            : MP3\nDuration                                 : 1h 34mn\nBit rate mode                            : Constant\nBit rate                                 : 192 Kbps\nChannel(s)                               : 2 channels\nSampling rate                            : 48.0 KHz\nCompression mode                         : Lossy\nStream size                              : 130 MiB (11%)\nAlignment                                : Aligned on interleaves\nInterleave, duration                     : 24 ms (0.58 video frame)\nInterleave, preload duration             : 24 ms\nTitle                                    : RARBG.COM - Last.Days.in.Vietnam.2014.LIMITED.BRRip.XviD.MP3-RARBG\nWriting library                          : LAME","torrent":{"xt":"urn:btih:27713468f402d1b592b5f2e36f01a6d1e9f77ff0","amp;dn":"Last.Days.in.Vietnam.2014.LIMITED.BRRip.XviD.MP3-RARBG","amp;tr":["udp%3A%2F%2Ftracker.openbittorrent.com%3A80","udp%3A%2F%2Fopen.demonii.com%3A1337","udp%3A%2F%2Ftracker.coppersurfer.tk%3A6969","udp%3A%2F%2Fexodus.desync.com%3A6969"],"infoHash":"27713468f402d1b592b5f2e36f01a6d1e9f77ff0","infoHashBuffer":{"type":"Buffer","data":[39,113,52,104,244,2,209,181,146,181,242,227,111,1,166,209,233,247,127,240]},"announce":[],"urlList":[]}}